<svg width="64" height="60" viewBox="0 0 64 60" fill="none" xmlns="http://www.w3.org/2000/svg">
<circle cx="30" cy="30" r="29.5" stroke="#886239"/>
<path d="M62.9992 12.6266L58.7607 11.0843L58.6301 11.0368L58.4938 11.0634L56.6093 11.4315L56.4424 11.4641L56.33 11.5918L43.9593 25.6371L43.8836 25.7231L43.8529 25.8334L43.5211 27.0246L43.4885 27.1417L43.5133 27.2607L43.8495 28.8739L43.1386 34.8616L43.1284 34.9478L43.1478 35.0325L45.8657 46.8618L45.8729 46.8931L45.884 46.9232L47.6176 51.6116L47.6546 51.7117L47.7293 51.788L47.8698 51.9316H47.4874L41.2344 35.7635L41.1117 35.4462L40.7716 35.4439L40.4149 35.4414L40.0369 35.4387L39.9313 35.8017L37.0953 45.5489L38.3934 35.8861L38.4264 35.6404L38.2508 35.4654L37.198 34.4159L37.052 34.2704L36.8458 34.27L30.8941 34.2613L30.6902 34.261L30.5442 34.4034L29.2595 35.6568L29.1892 35.7254L29.1501 35.8156L27.0053 40.7558L26.9541 40.8737L26.9661 41.0018L27.5559 47.2554L27.5613 47.3127L27.5797 47.3674L28.9757 51.5313L29.0032 51.6133L29.0566 51.6813L29.2532 51.9316H28.6729L25.8823 41.797L26.5402 39.1118L25.6075 38.769L21.8623 46.2479L21.832 46.3083L21.8188 46.3747L20.827 51.3855L20.7895 51.5749L20.889 51.7403L21.0041 51.9316H20.6089L22.5644 42.0706L23.6814 38.6538L23.696 38.6093L23.702 38.5629L24.695 30.9192L23.717 30.7223L23.1505 32.783L23.2682 31.8497L24.3565 28.183L26.9437 24.8388L27.8148 24.3924L32.1195 23.4397L32.1773 23.4269L32.2304 23.401L46.7893 16.3079L46.8591 16.2739L46.9154 16.2203L56.1599 7.40649L56.427 7.15177L56.2623 6.82145L55.7953 5.8851L55.8162 5.86386L57.0839 6.68589L57.5647 6.99765L57.8084 6.47906L58.6183 4.75611L58.7734 4.86721L58.7867 5.88304L58.7897 6.1074L58.9592 6.25435L60.7008 7.76364L62.7566 10.7617L63.1658 11.9653L62.9992 12.6266ZM36.8293 51.6595L37.0104 51.9316H36.5335L36.4743 50.172L36.9838 46.379L36.7461 51.3586L36.7382 51.5228L36.8293 51.6595Z" fill="#886239" stroke="#886239"/>
</svg>
